<svg xmlns="http://www.w3.org/2000/svg" xmlns:xlink="http://www.w3.org/1999/xlink" viewBox="0 0 96 32"><defs><path id="Mailjet-Logo_svg__a" d="M0 32h95V0H0z"></path></defs><g fill="none" fill-rule="evenodd" transform="translate(.25)"><mask id="Mailjet-Logo_svg__b" fill="#fff"><use xlink:href="#Mailjet-Logo_svg__a"></use></mask><path fill="#131B20" d="M91.1 30.27v-5.01l.99-.57v1.94c.22-.16.58-.3.92-.3 1.09 0 1.85.75 1.85 1.85v2.1h-1v-2c0-.62-.38-.98-.88-.98-.55 0-.88.39-.88.97v2h-1Zm-4.33-1.92c0-1.19.85-2.02 2.05-2.02.74 0 1.41.39 1.73.98l-.85.51a.98.98 0 0 0-.9-.53c-.58 0-1.02.43-1.02 1.06 0 .6.4 1.07 1.03 1.07.4 0 .74-.2.9-.53l.86.5a2 2 0 0 1-1.75.99 1.97 1.97 0 0 1-2.05-2.03Zm-4.3 1.92V28.2c0-1.06.79-1.87 1.88-1.87 1.1 0 1.88.87 1.88 1.87v2.07h-1v-2c0-.6-.38-.97-.88-.97-.55 0-.87.39-.87.97v2h-1Zm-1.67 0V26.9l.98-.57v3.94h-.98Zm-3.95-.72.88-.5c.17.34.46.52.88.52.38 0 .62-.18.62-.43 0-.24-.33-.33-.9-.45-.79-.17-1.3-.49-1.3-1.15 0-.72.73-1.21 1.55-1.21.7 0 1.17.19 1.6.71l-.84.48c-.16-.27-.4-.4-.75-.4-.36 0-.56.15-.56.37 0 .26.4.32.94.45.73.19 1.3.44 1.3 1.17 0 .76-.75 1.28-1.69 1.28-.77-.01-1.35-.23-1.73-.84Zm-2.4-2.7-1.4 3.66c-.3.77-.83 1.21-1.54 1.17v-.57c.46.04.75-.25.93-.7l.06-.13-1.5-3.43h.64l1.18 2.7 1-2.7h.64Zm-4.24 1.73c0-.7-.53-1.24-1.22-1.24-.7 0-1.23.54-1.23 1.24s.53 1.23 1.23 1.23 1.22-.53 1.22-1.23m.6 0c0 1.02-.78 1.81-1.74 1.81a1.5 1.5 0 0 1-1.31-.68v.6h-.6v-4.83h.6v1.97c.28-.42.71-.68 1.3-.68.97 0 1.76.79 1.76 1.8M92.44 9.93v9.03h-2.26V9.92h-1.54V7.67h1.55l-.01-3.53h2.26v3.53h2.42v2.25h-2.42ZM78.7 12.38a3.66 3.66 0 0 1 1.77-2.63 3.1 3.1 0 0 1 3.06.01 3.53 3.53 0 0 1 1.77 2.61h-6.6Zm8.38-1.63a5.75 5.75 0 0 0-2.04-2.47A5.27 5.27 0 0 0 82 7.36c-1.03 0-1.97.27-2.84.8a5.99 5.99 0 0 0-2.82 5.14 5.99 5.99 0 0 0 2.82 5.14 5.3 5.3 0 0 0 4.95.37 5.64 5.64 0 0 0 1.77-1.2 6.1 6.1 0 0 0 1.24-1.77h-2.68c-.24.28-.52.52-.84.71a3.22 3.22 0 0 1-4.25-.97 3.8 3.8 0 0 1-.59-1.48h8.82a6.5 6.5 0 0 0-.5-3.35ZM74.6 4.9a1.2 1.2 0 1 1-2.4 0 1.2 1.2 0 0 1 2.4 0m-4.9 19.67v-2.25a2.6 2.6 0 0 0 2.23-1.24c.23-.38.34-.8.34-1.26V7.68h2.26v12.15a4.76 4.76 0 0 1-4.84 4.75m-2.5-5.64h2.25V2.04H67.2v16.9ZM64.44 4.9a1.2 1.2 0 1 1-2.4 0 1.2 1.2 0 0 1 2.4 0M62.1 18.95h2.26V7.68H62.1v11.27Zm-8.66-1.89a3.1 3.1 0 0 0 1.76-.5c.52-.34.91-.8 1.2-1.36.28-.57.42-1.2.42-1.89 0-.7-.14-1.33-.42-1.9a3.37 3.37 0 0 0-1.2-1.36 3.47 3.47 0 0 0-3.6 0 3.74 3.74 0 0 0-1.81 3.26 3.78 3.78 0 0 0 1.84 3.25c.56.34 1.16.5 1.81.5Zm5.84-9.38v11.27H57v-1.72a4.07 4.07 0 0 1-3.6 2 6.01 6.01 0 0 1-5.95-5.93 6 6 0 0 1 5.95-5.95A4.07 4.07 0 0 1 57 9.37v-1.7h2.27Zm-30.85 0h2.27v1.3c.24-.34.5-.6.75-.81a2.87 2.87 0 0 1 1.88-.64c.83 0 1.57.19 2.22.57.65.37 1.2.9 1.64 1.58a4.4 4.4 0 0 1 3.85-2.15c.94 0 1.78.24 2.53.72a4.88 4.88 0 0 1 1.74 1.94c.41.81.62 1.7.62 2.67v6.09h-2.26v-6.09c0-.57-.1-1.09-.32-1.55a2.67 2.67 0 0 0-.93-1.11 2.4 2.4 0 0 0-1.39-.41c-.52 0-.98.13-1.4.4-.41.28-.74.65-.97 1.12-.23.47-.34.99-.34 1.55v6.09h-2.26v-6.09a3.5 3.5 0 0 0-.35-1.55 2.81 2.81 0 0 0-.98-1.11 2.49 2.49 0 0 0-1.4-.41c-.5 0-.95.14-1.34.43-.4.29-.72.68-.95 1.16a3.64 3.64 0 0 0-.34 1.58v5.99h-2.27V7.68Z" mask="url(#Mailjet-Logo_svg__b)"></path><path fill="#9585F4" d="m.11 10.19 8.56 3.88 1.72-1.71-4.38-1.99 13.58-5.2-5.22 13.52-1.98-4.34-1.73 1.72.09.2 3.79 8.31 9.03-23.37z" mask="url(#Mailjet-Logo_svg__b)"></path></g></svg>