<?xml version="1.0" encoding="utf-8"?>
<!-- Generator: Adobe Illustrator 25.1.0, SVG Export Plug-In . SVG Version: 6.00 Build 0)  -->
<svg version="1.1" id="Layer_1" xmlns="http://www.w3.org/2000/svg" xmlns:xlink="http://www.w3.org/1999/xlink" x="0px" y="0px"
	 viewBox="0 0 1680 500" style="enable-background:new 0 0 1680 500;" xml:space="preserve">
<style type="text/css">
	.st0{fill:#282828;}
	.st1{fill:#FEAD0D;}
</style>
<g>
	<path class="st0" d="M502.8,136.3h40v23c4.4-5.9,8.9-10.6,13.4-14.3c4.5-3.7,9.5-6.5,14.9-8.4c5.4-1.9,11.5-2.9,18.3-2.9
		c14.7,0,27.7,3.3,39.2,10c11.5,6.7,21.1,16.1,29,28.2c7.7-12.3,17.4-21.7,29-28.3c11.6-6.6,24.6-9.9,39-9.9
		c16.7,0,31.6,4.2,44.8,12.7c13.2,8.5,23.5,19.9,30.8,34.4c7.3,14.5,11,30.3,11,47.5v108h-40v-108c0-10.1-1.9-19.3-5.7-27.6
		c-3.8-8.3-9.2-14.8-16.3-19.7c-7.1-4.9-15.3-7.3-24.6-7.3c-9.2,0-17.5,2.4-24.8,7.3c-7.3,4.9-13,11.5-17.1,19.8
		c-4.1,8.3-6.1,17.5-6.1,27.5v108h-40v-108c0-10-2.1-19.2-6.2-27.5c-4.1-8.3-9.9-14.9-17.2-19.8c-7.3-4.9-15.6-7.3-24.8-7.3
		c-8.8,0-16.7,2.6-23.8,7.7c-7.1,5.1-12.6,12-16.7,20.6c-4.1,8.6-6.1,18-6.1,28.1v106.2h-40V136.3z"/>
	<path class="st0" d="M1048.2,136.3v200h-40v-30.4c-6.9,11.1-15.8,19.8-26.6,26.1s-23.1,9.5-37,9.5c-19.1,0-36.6-4.7-52.7-14.2
		c-16.1-9.5-28.8-22.2-38.3-38.3c-9.5-16.1-14.2-33.6-14.2-52.7c0-19.2,4.7-36.9,14.2-53c9.5-16.1,22.2-28.9,38.3-38.4
		c16.1-9.5,33.6-14.2,52.7-14.2c13.9,0,26.2,3.2,37,9.5c10.8,6.3,19.7,15,26.6,26.1v-30H1048.2z M945,302.9c11.7,0,22.1-3,31.2-9
		c9.1-6,16.1-14,21.1-24.1c5-10.1,7.5-21.2,7.5-33.5c0-12.4-2.5-23.7-7.5-33.8c-5-10.1-12-18.2-21.1-24.1
		c-9.1-5.9-19.5-8.9-31.2-8.9c-11.7,0-22.5,3-32.4,9c-9.9,6-17.7,14.1-23.5,24.3s-8.7,21.4-8.7,33.5c0,12.1,2.9,23.3,8.8,33.4
		c5.9,10.1,13.8,18.2,23.7,24.2C922.9,299.9,933.6,302.9,945,302.9z"/>
	<path class="st0" d="M1138.2,136.3v200h-40v-200H1138.2z"/>
	<path class="st0" d="M1188.2,36.3h39.8v299.8h-39.8V36.3z"/>
	<path class="st0" d="M1232.4,436.3c0-2.4,0-5.1,0-8.1s0-6.1,0-9.3c0-4,0-7.9,0-11.8c0-3.9,0-7.5,0-10.8c8.4,0,16.1-2,23-5.9
		c6.9-3.9,12.4-9.3,16.5-16c4.1-6.7,6.1-14.2,6.1-22.5V136.3h40v215.6c0,15.3-3.8,29.5-11.4,42.4c-7.6,12.9-17.9,23.2-30.9,30.7
		C1262.7,432.5,1248.3,436.3,1232.4,436.3z"/>
	<path class="st0" d="M1540,190.8c-8.1-18.3-20.1-32.9-36-43.8c-15.9-10.9-33.8-16.3-53.8-16.3c-18.1,0-34.8,4.7-50.1,14.2
		c-15.3,9.5-27.4,22.3-36.4,38.4s-13.5,33.7-13.5,52.8c0,19.1,4.5,36.7,13.5,52.8s21.1,28.9,36.4,38.4c15.3,9.5,32,14.2,50.1,14.2
		c13.1,0,25.5-2.5,37.3-7.6c11.8-5.1,22.3-12.2,31.4-21.3c9.1-9.1,16.4-19.6,21.9-31.5h-47.4c-4.3,5.1-9.2,9.3-14.8,12.7
		c-8.7,5.3-18.1,7.8-28.4,7.7c-9.9-0.1-18.8-2.4-26.9-6.8s-14.7-10.5-19.9-18.2s-8.7-16.5-10.4-26.2h156
		C1551.2,229,1548.2,209.1,1540,190.8z M1391.8,219.7c1.5-10,5-19.1,10.5-27.3c5.5-8.2,12.5-14.6,20.8-19.3c8.3-4.7,17.4-7,27.1-7
		c9.6,0,18.6,2.4,27.1,7.2s15.5,11.3,21,19.5s9,17.2,10.3,26.9H1391.8z"/>
	<path class="st0" d="M1634.7,176.1v160.2h-40l0.2-160.2h-27.4v-40h27.4l-0.2-62.6h40v62.6h42.8v40H1634.7z"/>
	<circle class="st0" cx="1118.4" cy="87.1" r="21.2"/>
	<circle class="st0" cx="1298" cy="87.1" r="21.2"/>
</g>
<path class="st1" d="M1.9,180.9l151.4,68.9l30.5-30.5l-77.5-35.3l240.2-92.4l-92.3,240.1l-35-77.1l-30.5,30.5l1.6,3.5l67,147.5
	L416.7,21.4L1.9,180.9z"/>
<g>
	<path class="st0" d="M635.8,470.3v-74h25c7.9-0.1,13.8,1,17.7,2.8c8,3.7,13,12.2,13,22.2c0,13.7-7.6,25.8-28.8,25.8h-8.8v23.2
		H635.8z M662,430.5c7.6,0,11.4-2.6,11.4-8.9c0-6-3.7-8.7-12.1-8.7h-7.4v17.6H662z"/>
	<path class="st0" d="M748.6,470.3l-3.6-10.7h-25.7l-3.9,10.7h-20.3l29.7-74h14.9l29.4,74H748.6z M732.4,419.4l-0.3-0.1l-7.6,25.3
		H740L732.4,419.4z"/>
	<path class="st0" d="M790.6,470.3v-57.4H771v-16.6h58v16.6h-19.5v57.4H790.6z"/>
	<path class="st0" d="M889.7,470.3v-29.6h-24.2v29.6h-18.9v-74h18.9v27.8h24.2v-27.8h18.9v74H889.7z"/>
	<path class="st0" d="M1040.1,470.3v-74h18.9v74H1040.1z"/>
	<path class="st0" d="M1157.7,470.3v-74h48.6v16.6h-30.5v11.5h22.3V441h-22.3v12.7h30.5v16.6H1157.7z"/>
	<line class="st0" x1="984.9" y1="470.3" x2="1002" y2="470.3"/>
	<polygon class="st0" points="1004.5,396.3 993.8,437.7 982.7,396.3 965.6,396.3 954.6,437.7 943.9,396.3 926.8,396.3 945.9,470.3 
		963,470.3 974.2,428.3 985.4,470.3 985.4,470.3 1002.5,470.3 1002.5,470.3 1021.6,396.3 	"/>
	<path class="st0" d="M1117.8,470.5l-12.1-23.9h-5h-0.2v23.9h-18.1v-74h24.2c7.7,0,13.6,1,17.5,2.7c8,3.6,13.6,12.3,13.6,22.8
		c0,11.7-7,21.3-18.4,23.3l2.1-3.6l18,28.8H1117.8z M1107.5,433.7c7.5,0,12.1-3.5,12.1-10.6c0-6.4-4.8-10-11.9-10h-7.2v20.6H1107.5z
		"/>
</g>
<g>
	<path class="st0" d="M528.7,418.9c4.8,0,9.2,1.2,13.2,3.6c4,2.4,7.2,5.6,9.6,9.6c2.4,4,3.5,8.4,3.5,13.2c0,4.8-1.2,9.2-3.5,13.2
		c-2.4,4-5.6,7.2-9.6,9.6c-4,2.4-8.4,3.5-13.2,3.5c-3.5,0-6.5-0.8-9.2-2.4c-2.7-1.6-4.9-3.8-6.6-6.5v7.6h-10v-75h10v32.5
		c1.7-2.8,3.9-4.9,6.6-6.5C522.1,419.7,525.2,418.9,528.7,418.9z M528.6,461.9c2.9,0,5.6-0.8,8.1-2.2c2.5-1.5,4.5-3.5,5.9-6.1
		c1.5-2.6,2.2-5.3,2.2-8.3c0-3-0.7-5.8-2.2-8.4c-1.5-2.5-3.5-4.6-6-6.1c-2.5-1.5-5.2-2.2-8.1-2.2s-5.5,0.8-7.8,2.2
		c-2.3,1.5-4,3.5-5.3,6c-1.2,2.5-1.9,5.3-1.9,8.4c0,3.1,0.6,5.9,1.9,8.4c1.2,2.5,3,4.5,5.3,6C523.1,461.2,525.7,461.9,528.6,461.9z"
		/>
	<path class="st0" d="M605.2,420.3l-27.4,75h-10.6l9.1-25l-18-50h11l12,36.3l13.3-36.3H605.2z"/>
</g>
</svg>
